<svg xmlns="http://www.w3.org/2000/svg" version="1.1" xmlns:xlink="http://www.w3.org/1999/xlink" xmlns:svgjs="http://svgjs.dev/svgjs" width="2560" height="1440" preserveAspectRatio="none" viewBox="0 0 2560 1440"><g mask="url(&quot;#SvgjsMask1141&quot;)" fill="none"><rect width="2560" height="1440" x="0" y="0" fill="rgba(21, 67, 96, 1)"></rect><path d="M0,673.751C135.198,670.756,279.366,684.823,392.435,610.642C505.161,536.686,561.3,403.89,605.481,276.514C646.645,157.836,659.253,31.998,635.954,-91.436C613.33,-211.29,535.303,-305.722,475.512,-412.033C399.028,-548.024,374.175,-730.939,235.773,-802.97C95.437,-876.007,-80.436,-833.987,-228.581,-778.476C-370.594,-725.263,-477.462,-614.382,-575.746,-498.886C-673.267,-384.287,-759.537,-260.646,-793.906,-114.147C-830.339,41.148,-850.119,213.148,-775.918,354.35C-702.785,493.521,-549.149,568.432,-403.769,628.277C-275.936,680.898,-138.206,676.812,0,673.751" fill="#0e2c3e"></path><path d="M2560 2645.038C2791.119 2705.879 3051.2200000000003 2646.3469999999998 3250.091 2513.803 3447.739 2382.074 3579.9120000000003 2161.5119999999997 3632.8940000000002 1929.974 3681.3 1718.432 3586.249 1509.82 3527.641 1300.874 3476.532 1118.662 3411.577 949.178 3312.554 787.909 3196.11 598.266 3120.07 317.0329999999999 2900.671 279.7829999999999 2674.773 241.43000000000006 2539.262 556.095 2318.998 619.221 2096.316 683.04 1813.663 489.92999999999995 1638.4969999999998 641.513 1468.897 788.279 1556.287 1069.651 1539.993 1293.345 1524.929 1500.158 1442.294 1723.59 1546.625 1902.7930000000001 1649.856 2080.1059999999998 1904.097 2081.81 2069.62 2203.047 2250.821 2335.767 2342.793 2587.859 2560 2645.038" fill="#1c5a82"></path></g><defs><mask id="SvgjsMask1141"><rect width="2560" height="1440" fill="#ffffff"></rect></mask></defs></svg>